<?xml version="1.0" standalone="no"?>
<!DOCTYPE svg PUBLIC "-//W3C//DTD SVG 20010904//EN"
 "http://www.w3.org/TR/2001/REC-SVG-20010904/DTD/svg10.dtd">
<svg version="1.0" xmlns="http://www.w3.org/2000/svg"
 width="1024.000000pt" height="1024.000000pt" viewBox="0 0 1024.000000 1024.000000"
 preserveAspectRatio="xMidYMid meet">

<g transform="translate(0.000000,1024.000000) scale(0.100000,-0.100000)"
fill="#000000" stroke="none">
<path d="M3787 8745 c-357 -49 -719 -211 -1002 -447 -237 -198 -412 -420 -540
-683 -78 -161 -118 -269 -160 -438 l-33 -130 -78 -29 c-117 -42 -327 -148
-424 -213 -474 -320 -785 -785 -899 -1345 -40 -195 -43 -287 -39 -1225 4 -989
2 -954 69 -1205 95 -358 262 -656 515 -920 313 -326 695 -528 1149 -607 92
-16 285 -18 2535 -23 2636 -7 2511 -4 2634 -58 64 -29 115 -85 361 -392 149
-187 227 -276 259 -298 149 -98 345 -40 428 127 l23 46 0 1295 0 1295 -27 50
c-31 60 -78 109 -133 138 l-40 22 -2235 5 c-2098 5 -2240 7 -2325 23 -308 62
-551 191 -765 406 -217 218 -351 462 -416 761 -18 80 -19 145 -19 1035 0 890
1 955 19 1035 67 307 195 541 415 760 225 224 460 349 766 406 95 18 187 19
2005 19 l1905 0 105 -23 c306 -68 529 -188 740 -401 211 -213 339 -442 413
-740 21 -85 21 -105 27 -1356 4 -961 9 -1279 18 -1306 27 -80 92 -150 172
-186 53 -23 174 -21 231 4 62 28 116 84 148 152 l26 56 0 1235 c0 1322 0 1315
-51 1548 -138 624 -554 1151 -1124 1426 -209 100 -403 157 -630 186 -137 16
-3897 12 -4023 -5z m-1743 -3855 c102 -616 423 -1121 926 -1453 224 -147 464
-243 760 -304 78 -16 248 -17 2175 -22 l2090 -6 3 -643 c1 -353 0 -642 -3
-642 -4 0 -34 23 -68 50 -125 101 -288 166 -477 189 -52 7 -106 15 -120 18
-14 3 -1118 9 -2455 13 l-2430 6 -86 21 c-585 144 -995 567 -1132 1165 -20 90
-21 120 -25 958 -2 596 0 896 8 965 52 468 318 884 721 1126 l84 50 6 -693 c5
-591 8 -708 23 -798z"/>
<path d="M3730 6258 c-156 -55 -237 -176 -228 -345 16 -345 480 -437 627 -124
22 47 26 70 26 146 0 77 -4 98 -27 147 -72 153 -244 229 -398 176z"/>
<path d="M5734 6269 c-102 -24 -206 -120 -240 -222 -24 -71 -16 -197 16 -262
119 -244 473 -250 591 -10 93 190 8 413 -183 481 -56 20 -133 25 -184 13z"/>
<path d="M7703 6266 c-155 -50 -243 -170 -243 -331 0 -103 28 -174 94 -241
163 -162 431 -114 534 96 23 47 27 67 27 145 0 78 -4 97 -28 147 -70 143 -248
228 -384 184z"/>
</g>
</svg>
